<svg width="5" height="18" viewBox="0 0 5 18" fill="none" xmlns="http://www.w3.org/2000/svg">
<path d="M2.5 13.3333C1.83696 13.3333 1.20107 13.5792 0.732233 14.0168C0.263392 14.4543 0 15.0478 0 15.6667C0 16.2855 0.263392 16.879 0.732233 17.3166C1.20107 17.7542 1.83696 18 2.5 18C3.16304 18 3.79893 17.7542 4.26777 17.3166C4.73661 16.879 5 16.2855 5 15.6667C5 15.0478 4.73661 14.4543 4.26777 14.0168C3.79893 13.5792 3.16304 13.3333 2.5 13.3333ZM2.5 6.66667C1.83696 6.66667 1.20107 6.9125 0.732233 7.35008C0.263392 7.78767 0 8.38116 0 9C0 9.61884 0.263392 10.2123 0.732233 10.6499C1.20107 11.0875 1.83696 11.3333 2.5 11.3333C3.16304 11.3333 3.79893 11.0875 4.26777 10.6499C4.73661 10.2123 5 9.61884 5 9C5 8.38116 4.73661 7.78767 4.26777 7.35008C3.79893 6.9125 3.16304 6.66667 2.5 6.66667ZM5 2.33333C5 1.71449 4.73661 1.121 4.26777 0.683417C3.79893 0.245833 3.16304 0 2.5 0C1.83696 0 1.20107 0.245833 0.732233 0.683417C0.263392 1.121 0 1.71449 0 2.33333C0 2.95217 0.263392 3.54566 0.732233 3.98325C1.20107 4.42083 1.83696 4.66667 2.5 4.66667C3.16304 4.66667 3.79893 4.42083 4.26777 3.98325C4.73661 3.54566 5 2.95217 5 2.33333Z" fill="#3B3B3B"/>
</svg>
