<svg width="19" height="18" viewBox="0 0 19 18" fill="none" xmlns="http://www.w3.org/2000/svg">
<path d="M6.11907 0.865598C5.83334 0.211721 5.08005 -0.136311 4.36016 0.0500092L1.09468 0.893722C0.449004 1.06246 0 1.61791 0 2.25069C0 10.948 7.44381 18 16.6243 18C17.2922 18 17.8785 17.5746 18.0566 16.9629L18.9472 13.8693C19.1439 13.1873 18.7765 12.4737 18.0863 12.203L14.524 10.7968C13.9191 10.5578 13.2178 10.723 12.8059 11.2046L11.3067 12.9377C8.69434 11.7671 6.5792 9.76325 5.34351 7.28836L7.17293 5.87163C7.6813 5.4779 7.85571 4.81699 7.60338 4.24397L6.11907 0.869114V0.865598Z" fill="#383838"/>
</svg>
